<svg id="Calque_1" data-name="Calque 1" xmlns="http://www.w3.org/2000/svg" xmlns:xlink="http://www.w3.org/1999/xlink" viewBox="0 0 142.75 152.38"><defs><style>.cls-1{fill:url(#Dégradé_sans_nom_13);}</style><linearGradient id="Dégradé_sans_nom_13" x1="80" y1="121.27" x2="222.75" y2="121.27" gradientUnits="userSpaceOnUse"><stop offset="0.01" stop-color="#e6007e"/><stop offset="0.54" stop-color="#ffed00"/><stop offset="0.87" stop-color="#fff"/></linearGradient></defs><title>tesing</title><path class="cls-1" d="M197,45.72c-5.12,1.63-8.53,6.37-11.39,10.92-9,14.37-16.45,29.94-27.76,42.61-3.34,3.74-7.07,7.26-11.57,9.47s-9.88,3-14.58,1.26c-4.26-1.59-7.75-5.16-12.24-5.86-6.31-1-11.88,3.88-16.4,8.39-4.87,4.85-10.36,9.32-10.92,16.17-1.2,7.28-3.68,12.85-6.63,18.94-3.89,8-6.33,17-5.31,25.87s5.93,17.55,13.84,21.68,18.78,2.67,24.3-4.34c3.38-4.29,4.47-9.91,7-14.73a27,27,0,0,1,22.93-14,16.05,16.05,0,0,1,8.89,2.17c1.5,1,2.75,2.25,4.2,3.27,6.31,4.44,15.37,2.93,21.63-1.58s10.31-11.4,14-18.18c1.55-2.86,3.12-6,2.68-9.21-0.33-2.39-1.71-4.47-2.73-6.66-4.85-10.4-1.12-22.86,4.78-32.71s13.9-18.45,18.54-29a26.68,26.68,0,0,0,2.43-10.41V59.84A12.62,12.62,0,0,0,219.64,51c-2.76-3-6.94-4.12-10.91-5a34.52,34.52,0,0,0-7.23-1,14.61,14.61,0,0,0-4.46.64" transform="translate(-80 -45.08)"/></svg>