<svg id="Calque_1" data-name="Calque 1" xmlns="http://www.w3.org/2000/svg" xmlns:xlink="http://www.w3.org/1999/xlink" viewBox="0 0 1191.36 921.94"><defs><style>.cls-1{fill:url(#Dégradé_sans_nom_10);}.cls-2{fill:url(#Dégradé_sans_nom_8);}.cls-3{fill:url(#Dégradé_sans_nom_2);}.cls-4{fill:url(#Dégradé_sans_nom_5);}.cls-5{fill:url(#Dégradé_sans_nom_6);}.cls-6{fill:url(#Dégradé_sans_nom_8-2);}.cls-7{fill:url(#Dégradé_sans_nom_10-2);}.cls-8{fill:url(#Dégradé_sans_nom_11);}.cls-9{fill:url(#Dégradé_sans_nom_3);}.cls-10{fill:url(#Dégradé_sans_nom_4);}.cls-11{fill:url(#Dégradé_sans_nom_7);}.cls-12{fill:url(#Dégradé_sans_nom_10-3);}.cls-13{fill:url(#Dégradé_sans_nom_11-2);}</style><linearGradient id="Dégradé_sans_nom_10" x1="941.29" y1="756.85" x2="1156.6" y2="756.85" gradientTransform="matrix(1, 0, 0, -1, -23.07, 933.26)" gradientUnits="userSpaceOnUse"><stop offset="0.39" stop-color="#e50c7e"/><stop offset="1" stop-color="#ffe104"/></linearGradient><linearGradient id="Dégradé_sans_nom_8" x1="445.84" y1="353.45" x2="821.74" y2="353.45" gradientTransform="matrix(-1, 0, 0, 1, 897.74, 144.45)" gradientUnits="userSpaceOnUse"><stop offset="0.01" stop-color="#e50c7e"/><stop offset="0.54" stop-color="#fdeb1b"/><stop offset="0.87" stop-color="#fff"/></linearGradient><linearGradient id="Dégradé_sans_nom_2" x1="1426.19" y1="600.58" x2="1643.87" y2="600.58" gradientTransform="matrix(1, 0, 0, -1, -429.44, 904.37)" gradientUnits="userSpaceOnUse"><stop offset="0" stop-color="#fff"/><stop offset="0.26" stop-color="#fdeb1b"/><stop offset="0.69" stop-color="#e50c7e"/></linearGradient><linearGradient id="Dégradé_sans_nom_5" x1="-563.66" y1="1164.39" x2="-121.66" y2="1164.39" gradientTransform="matrix(-1, 0, 0, 1, 330.24, -770.52)" gradientUnits="userSpaceOnUse"><stop offset="0.23" stop-color="#e50c7e"/><stop offset="0.92" stop-color="#fdeb1b"/><stop offset="1" stop-color="#fff"/></linearGradient><linearGradient id="Dégradé_sans_nom_6" x1="979.16" y1="2046.07" x2="1272.13" y2="2046.07" gradientTransform="matrix(0, 1, 1, 0, -1049.53, -321.45)" gradientUnits="userSpaceOnUse"><stop offset="0.2" stop-color="#e50c7e"/><stop offset="0.8" stop-color="#fdeb1b"/><stop offset="1" stop-color="#fff"/></linearGradient><linearGradient id="Dégradé_sans_nom_8-2" x1="818.19" y1="381.68" x2="1184.39" y2="381.68" gradientTransform="matrix(1, 0, 0, -1, -80, 916.92)" xlink:href="#Dégradé_sans_nom_8"/><linearGradient id="Dégradé_sans_nom_10-2" x1="814.03" y1="257.19" x2="1055.54" y2="257.19" xlink:href="#Dégradé_sans_nom_10"/><linearGradient id="Dégradé_sans_nom_11" x1="36.86" y1="804.15" x2="295.1" y2="804.15" gradientTransform="matrix(1, 0, 0, -1, -23.07, 933.26)" gradientUnits="userSpaceOnUse"><stop offset="0.31" stop-color="#fed908"/><stop offset="0.37" stop-color="#fed908"/><stop offset="1" stop-color="#fff"/></linearGradient><linearGradient id="Dégradé_sans_nom_3" x1="402.92" y1="625.04" x2="668.44" y2="625.04" gradientTransform="matrix(1, 0, 0, -1, -259.57, 820.68)" gradientUnits="userSpaceOnUse"><stop offset="0.31" stop-color="#e50c7e"/><stop offset="1" stop-color="#fff"/></linearGradient><linearGradient id="Dégradé_sans_nom_4" x1="866.15" y1="365.25" x2="1114.17" y2="365.25" gradientTransform="matrix(1, 0, 0, -1, -364.71, 986.84)" gradientUnits="userSpaceOnUse"><stop offset="0.7" stop-color="#fdeb1b"/><stop offset="1" stop-color="#fff"/></linearGradient><linearGradient id="Dégradé_sans_nom_7" x1="329.22" y1="-112.2" x2="791.66" y2="-112.2" gradientTransform="matrix(0.82, 0.57, 0.57, -0.82, -189.2, 327.29)" gradientUnits="userSpaceOnUse"><stop offset="0" stop-color="#e50c7e"/><stop offset="0.23" stop-color="#fdeb1b"/><stop offset="0.58" stop-color="#ffe104"/><stop offset="1" stop-color="#fff"/></linearGradient><linearGradient id="Dégradé_sans_nom_10-3" x1="945.56" y1="446.44" x2="1160.87" y2="446.44" gradientTransform="matrix(-1, 0, 0, 1, 1375.23, 299.55)" xlink:href="#Dégradé_sans_nom_10"/><linearGradient id="Dégradé_sans_nom_11-2" x1="518.12" y1="789.5" x2="718.26" y2="789.5" xlink:href="#Dégradé_sans_nom_11"/></defs><title>TESS</title><circle class="cls-1" cx="1025.87" cy="176.41" r="107.65"/><path class="cls-2" d="M143.69,696.76c13.48-4.29,22.46-16.78,30-28.76,23.7-37.84,43.32-78.85,73.11-112.22,8.8-9.85,18.62-19.12,30.47-24.94s26-7.9,38.4-3.32c11.22,4.19,20.41,13.59,32.23,15.43,16.62,2.63,31.29-10.22,43.19-22.1,12.83-12.77,27.28-24.54,28.76-42.58,3.16-19.17,9.69-33.84,17.46-49.88,10.24-21.07,16.67-44.77,14-68.13s-15.62-46.22-36.45-57.1-49.46-7-64,11.43c-8.9,11.3-11.77,26.1-18.43,38.79A71.11,71.11,0,0,1,272,390.26a42.27,42.27,0,0,1-23.41-5.71c-4-2.63-7.24-5.93-11.06-8.61-16.62-11.69-40.48-7.72-57,4.16s-27.15,30-36.87,47.88c-4.08,7.53-8.22,15.8-7.06,24.26,0.87,6.29,4.5,11.77,7.19,17.54,12.77,27.39,2.95,60.2-12.59,86.14S94.65,604.5,82.43,632.29A70.26,70.26,0,0,0,76,659.7v-0.13a33.24,33.24,0,0,0,8,23.28c7.27,7.9,18.28,10.85,28.73,13.17a90.91,90.91,0,0,0,19,2.63A38.48,38.48,0,0,0,143.58,697" transform="translate(-23.07 -28.74)"/><path class="cls-3" d="M1087.12,203.77a77.23,77.23,0,0,1-6.46,56.72c-11.24,20.77-31.29,35-46.91,52.72a150.63,150.63,0,0,0-36.36,80.69,38.59,38.59,0,0,0,1.06,18.28c6.78,18,32,19.28,50.6,14.3s39.73-12.67,56-2.26c30.92,19.88,6,77.63,35.07,100.12,13.73,10.61,34.7,7.29,47.91-3.92s20-28.4,23.23-45.42c12.27-62.59-13.9-125.55-21.88-188.79a333.1,333.1,0,0,1,11.44-137.3c2.06-6.87,4.41-13.93,3.55-21-1.6-13.36-13.64-22.74-25-30-23.63-15.16-53.4-28.4-78.78-16.48-20.37,9.44-31,33.44-30.61,56.15a151,151,0,0,0,17.16,66.22" transform="translate(-23.07 -28.74)"/><path class="cls-4" d="M531.61,627.58c15.85-5,26.41-19.72,35.26-33.8,27.86-44.48,50.92-92.68,85.93-131.9,10.34-11.58,21.89-22.47,35.82-29.32s30.58-9.29,45.13-3.9c13.19,4.92,24,16,37.89,18.14,19.53,3.1,36.78-12,50.77-26,15.08-15,32.07-28.85,33.8-50.06,3.71-22.54,11.39-39.78,20.52-58.63,12-24.76,19.6-52.63,16.44-80.08s-18.36-54.33-42.84-67.11-58.14-8.27-75.22,13.43c-10.43,13.28-13.84,30.68-21.67,45.6a83.58,83.58,0,0,1-71,43.34,49.68,49.68,0,0,1-27.67-6.87c-4.64-3.1-8.51-7-13-10.12-19.53-13.74-47.58-9.07-67,4.89s-31.92,35.29-43.34,56.28c-4.8,8.85-9.66,18.57-8.3,28.51,1,7.4,5.29,13.84,8.45,20.62,15,32.19,3.47,70.77-14.8,101.26s-43,57.11-57.39,89.77a82.59,82.59,0,0,0-7.52,32.23V584a39.07,39.07,0,0,0,9.63,27.27c8.54,9.29,21.48,12.75,33.77,15.48a106.86,106.86,0,0,0,22.38,3.1,45.23,45.23,0,0,0,13.81-2" transform="translate(-23.07 -28.74)"/><path class="cls-5" d="M1109.81,752.14c-39.61-17.34-33.41-52-57-74.92s-67.64-28.29-87-1.63c-6.13,8.39-9.06,18.79-15.18,27.18-13.36,18.23-38.09,22.87-60.18,27.58-35.23,7.42-72.21,20.57-92.81,50.16s-13.51,79.3,20.46,91c25.1,8.65,51.68-5.68,74.92-18.56s52-24.91,75.18-12.21c25.24,13.74,29.7,48.26,48.78,69.68,15.44,17.19,38.91,24.24,61.18,30.41,35.9,9.91,78.41,18.15,107-5.68,29.7-24.73,27.14-73.73,4.71-105.14s-42.21-53.13-80-78" transform="translate(-23.07 -28.74)"/><path class="cls-6" d="M1038.44,341.51c-13.14,4.18-21.88,16.34-29.22,28C986.13,406.39,967,446.34,938,478.84c-8.57,9.6-18.14,18.63-29.68,24.3s-25.35,7.7-37.41,3.23c-10.93-4.08-19.88-13.24-31.4-15-16.19-2.57-30.48,10-42.08,21.53-12.49,12.44-26.58,23.91-28,41.49-3.08,18.68-9.44,33-17,48.59-10,20.52-16.24,43.61-13.62,66.37s15.21,45,35.51,55.62,48.18,6.85,62.34-11.13c8.67-11,11.47-25.42,18-37.79a69.27,69.27,0,0,1,58.83-35.92,41.18,41.18,0,0,1,22.81,5.57c3.85,2.57,7.06,5.77,10.78,8.39,16.19,11.39,39.43,7.52,55.49-4.05s26.45-29.25,35.92-46.64c4-7.34,8-15.39,6.88-23.63-0.85-6.13-4.39-11.47-7-17.09-12.44-26.68-2.87-58.65,12.26-83.92s35.66-47.33,47.57-74.4a68.45,68.45,0,0,0,6.23-26.71v0.13a32.38,32.38,0,0,0-7.83-22.68c-7.08-7.7-17.81-10.57-28-12.83a88.56,88.56,0,0,0-18.55-2.57,37.48,37.48,0,0,0-11.44,1.64" transform="translate(-23.07 -28.74)"/><circle class="cls-7" cx="911.72" cy="676.07" r="120.75"/><circle class="cls-8" cx="142.91" cy="129.12" r="129.12"/><path class="cls-9" d="M372.49,105.73c-23.56,10.21-51,1-73.27-11.67S255.84,65,230.73,59.74c-10.06-2.1-21-2.22-30.19,2.43-7.9,4-13.74,11.1-18.85,18.24a209.77,209.77,0,0,0-38.06,107.83c-0.73,12-.36,24.32,4.68,35.27a60.8,60.8,0,0,0,23.41,24.81,98.83,98.83,0,0,0,86.34,8.88c7.39-2.77,15.35-6.51,22.8-3.86,8.42,3,12.16,13,12.59,21.95s-1.31,18.09.94,26.75c3.28,12.71,14.71,22,27.12,26.33s25.81,4.44,38.94,4.5a21.65,21.65,0,0,0,10.55-1.7c4.8-2.61,6.87-8.33,8.15-13.65,9.12-38.18-3.74-79.56,8.51-116.83,6.26-19,18.82-36.12,21-56s-13.92-43.9-33.2-38.55" transform="translate(-23.07 -28.74)"/><path class="cls-10" d="M581.37,525.63c-14.68,33.53-44,28.28-63.42,48.27s-23.95,57.26-1.38,73.66c7.1,5.19,15.9,7.67,23,12.85,15.43,11.31,19.36,32.24,23.35,50.94,6.28,29.82,17.41,61.12,42.45,78.56s67.15,11.6,77.09-17.22c7.32-21.24-4.81-43.74-15.71-63.42s-21.09-44-10.34-63.64c11.63-21.37,40.85-25.14,59-41.29,14.55-13.07,20.52-32.93,25.74-51.79,8.39-30.39,15.37-66.37-4.81-90.57-20.93-25.14-62.41-23-89-4s-45,35.73-66,67.69" transform="translate(-23.07 -28.74)"/><path class="cls-11" d="M189.51,645.18C173.59,665.56,169,694.26,183.56,722c16.89,32.35,39,62.39,71.87,78.55s69.24,23.32,104.66,32.59c7.71,2,15.71,4.31,21.55,9.73,8.32,7.73,10.37,20.46,7.93,31.54-4.06,18.22-18.73,32.76-35.63,40.62s-36,9.77-54.66,10.08c-21.82.36-44.22-1.49-64-10.71s-35.15-24.61-49.92-40.28A1727.71,1727.71,0,0,1,67.9,737.37C51.41,716,35.1,693.66,27.46,667.75A119.21,119.21,0,0,1,61.19,548.32C72.69,538,86.88,529.71,102.32,528.8c22.91-1.35,43.64,13.3,59.81,29.59,22.88,23,48.74,62.39,27.41,86.85" transform="translate(-23.07 -28.74)"/><circle class="cls-12" cx="322.01" cy="745.99" r="107.65" transform="translate(-456.25 417.45) rotate(-45)"/><circle class="cls-13" cx="595.12" cy="143.76" r="100.07"/></svg>